# File created by Blade
# Date/Time:  Tue Apr 07 20:49:15 2015
#---------------------------------------------------------
:version 1.10
:name HOM
:units
  mass 1.0
  length 1.000000
  angle deg
:documentation
     Acclaim Skeleton File
:root
   axis xyz
   order TX TY TZ RX RY RZ
   position 0.000000 0.000000 0.000000
   orientation 0 0 0
:bonedata
   begin
      id 1
      name Spine_dum
      direction 0.000000 1.000000 0.000000
      length 4.885285
      axis 0.0 0.0 0.0 xyz
   end
   begin
      id 2
      name LeftUpLeg_dum
      direction 1.000000 0.000000 0.000000
      length 2.672193
      axis 0.0 0.0 0.0 xyz
   end
   begin
      id 3
      name RightUpLeg_dum
      direction -1.000000 0.000000 0.000000
      length 2.672193
      axis 0.0 0.0 0.0 xyz
   end
   begin
      id 4
      name Spine
      direction 0.000000 1.000000 0.000000
      length 0.000000
      axis 0.0 0.0 0.0 xyz
      dof rx ry rz
   end
   begin
      id 5
      name Spine_dum1
      direction 0.000000 1.000000 0.000000
      length 16.494159
      axis 0.0 0.0 0.0 xyz
   end
   begin
      id 6
      name Spine_dum2
      direction 0.000000 1.000000 0.000000
      length 10.663448
      axis 0.0 0.0 0.0 xyz
   end
   begin
      id 7
      name Spine_dum3
      direction 0.000000 1.000000 0.000000
      length 10.663448
      axis 0.0 0.0 0.0 xyz
   end
   begin
      id 8
      name Head
      direction 0.000000 1.000000 0.000000
      length 4.527550
      axis 0.0 0.0 0.0 xyz
      dof rx ry rz
   end
   begin
      id 9
      name LeftShoulder
      direction 1.000000 0.000000 0.000000
      length 7.531907
      axis 0.0 0.0 -90.0 xyz
      dof rx ry rz
   end
   begin
      id 10
      name LeftArm
      direction 1.000000 0.000000 0.000000
      length 10.229199
      axis 0.0 0.0 -90.0 xyz
      dof rx ry rz
   end
   begin
      id 11
      name LeftForeArm
      direction 1.000000 0.000000 0.000000
      length 8.673495
      axis 0.0 0.0 -90.0 xyz
      dof ry rz rx
   end
   begin
      id 12
      name LeftHand
      direction 0.000000 0.000000 0.000000
      length 0.000000
      axis 0.0 0.0 -90.0 xyz
      dof rx ry rz
   end
   begin
      id 13
      name LeftHand_dum1
      direction 0.000000 0.000000 0.000000
      length 0.000000
      axis 0.0 0.0 -90.0 xyz
   end
   begin
      id 14
      name LeftHand_dum2
      direction 1.000000 0.000000 0.000000
      length 3.937000
      axis 0.0 0.0 -90.0 xyz
   end
   begin
      id 15
      name LeftHandThumb1
      direction 0.000000 0.000000 1.000000
      length 3.937000
      axis 0.0 0.0 -90.0 xyz
      dof rx rz ry
   end
   begin
      id 16
      name RightShoulder
      direction -1.000000 0.000000 0.000000
      length 7.531907
      axis 0.0 0.0 90.0 xyz
      dof rx ry rz
   end
   begin
      id 17
      name RightArm
      direction -1.000000 0.000000 0.000000
      length 10.229199
      axis 0.0 0.0 90.0 xyz
      dof rx ry rz
   end
   begin
      id 18
      name RightForeArm
      direction -1.000000 0.000000 0.000000
      length 8.673495
      axis 0.0 0.0 90.0 xyz
      dof ry rz rx
   end
   begin
      id 19
      name RightHand
      direction 0.000000 0.000000 0.000000
      length 0.000000
      axis 0.0 0.0 90.0 xyz
      dof rx ry rz
   end
   begin
      id 20
      name RightHand_dum1
      direction 0.000000 0.000000 0.000000
      length 0.000000
      axis 0.0 0.0 90.0 xyz
   end
   begin
      id 21
      name RightHand_dum2
      direction -1.000000 0.000000 0.000000
      length 3.937000
      axis 0.0 0.0 90.0 xyz
   end
   begin
      id 22
      name RightHandThumb1
      direction 0.000000 0.000000 1.000000
      length 3.937000
      axis 0.0 0.0 90.0 xyz
      dof rx rz ry
   end
   begin
      id 23
      name LeftUpLeg
      direction 0.000000 -1.000000 0.000000
      length 16.263388
      axis 0.0 0.0 0.0 xyz
      dof rx ry rz
   end
   begin
      id 24
      name LeftLeg
      direction 0.000000 -1.000000 0.000000
      length 14.328163
      axis 0.0 0.0 0.0 xyz
      dof rx ry rz
   end
   begin
      id 25
      name LeftFoot
      direction 0.000000 -0.258819 0.965926
      length 5.031290
      axis 15.0 0.0 0.0 xyz
      dof rx ry rz
   end
   begin
      id 26
      name LeftToeBase
      direction 0.000000 0.000000 1.000000
      length 2.952750
      axis 0.0 0.0 0.0 xyz
      dof rx ry rz
   end
   begin
      id 27
      name RightUpLeg
      direction 0.000000 -1.000000 0.000000
      length 16.263388
      axis 0.0 0.0 0.0 xyz
      dof rx ry rz
   end
   begin
      id 28
      name RightLeg
      direction 0.000000 -1.000000 0.000000
      length 14.328163
      axis 0.0 0.0 0.0 xyz
      dof rx ry rz
   end
   begin
      id 29
      name RightFoot
      direction 0.000000 -0.258819 0.965926
      length 5.031290
      axis 15.0 0.0 0.0 xyz
      dof rx ry rz
   end
   begin
      id 30
      name RightToeBase
      direction 0.000000 0.000000 1.000000
      length 2.952750
      axis 0.0 0.0 0.0 xyz
      dof rx ry rz
   end
:hierarchy
   begin
      root Spine_dum LeftUpLeg_dum RightUpLeg_dum
      Spine_dum Spine
      LeftUpLeg_dum LeftUpLeg
      RightUpLeg_dum RightUpLeg
      Spine Spine_dum1 Spine_dum2 Spine_dum3
      Spine_dum1 Head
      Spine_dum2 LeftShoulder
      Spine_dum3 RightShoulder
      LeftShoulder LeftArm
      LeftArm LeftForeArm
      LeftForeArm LeftHand
      LeftHand LeftHand_dum1 LeftHand_dum2
      LeftHand_dum1 LeftHandThumb1
      RightShoulder RightArm
      RightArm RightForeArm
      RightForeArm RightHand
      RightHand RightHand_dum1 RightHand_dum2
      RightHand_dum1 RightHandThumb1
      LeftUpLeg LeftLeg
      LeftLeg LeftFoot
      LeftFoot LeftToeBase
      RightUpLeg RightLeg
      RightLeg RightFoot
      RightFoot RightToeBase
   end

# File created by Blade
# Date/Time:  Tue Apr 07 20:49:23 2015
# Frame Rate: 120.000 fps
#------------------------------------------------------
:FULLY-SPECIFIED
:DEGREES
159
root -0.565925 32.883075 -3.988352 19.263298 76.285907 4.871405
Spine -8.054927 -0.487347 -0.746281
Head 6.510137 -2.206182 -0.924325
LeftShoulder -21.603059 46.008632 4.269871
LeftArm 49.304453 -0.067986 -89.069991
LeftForeArm 16.893541 0.000000 33.496516
LeftHand 3.366380 -0.000000 8.495356
LeftHandThumb1 -26.253704 0.000000 33.147579
RightShoulder -5.976781 -5.688636 -18.825136
RightArm 9.283525 1.378471 84.941853
RightForeArm 5.682845 -0.000000 12.325471
RightHand 6.862742 0.000000 -3.144488
RightHandThumb1 -24.326973 -0.000000 -32.862282
LeftUpLeg -32.193143 -5.112997 4.045645
LeftLeg 25.859096 -0.000000 -0.000000
LeftFoot -6.527991 17.315680 -14.087992
LeftToeBase -13.664054 -0.000000 0.000000
RightUpLeg -8.377015 -11.764013 4.690876
RightLeg -0.039738 -0.000000 0.000000
RightFoot -10.042901 -25.835449 9.938337
RightToeBase -8.324148 -0.000000 0.000000
160
root -0.558441 32.888178 -4.016025 20.130363 76.895324 5.495048
Spine -8.148221 -0.484268 -0.909741
Head 6.367181 -2.396160 -0.854005
LeftShoulder -21.642602 46.107427 4.274778
LeftArm 49.216987 -0.310739 -88.999937
LeftForeArm 16.721201 -0.000000 33.432727
LeftHand 3.486084 -0.000000 8.815175
LeftHandThumb1 -26.253704 0.000000 33.147579
RightShoulder -5.970641 -5.667273 -18.793785
RightArm 9.339411 1.512666 85.075869
RightForeArm 6.058662 -0.000000 12.331231
RightHand 6.646447 0.000000 -3.256334
RightHandThumb1 -24.326973 -0.000000 -32.862282
LeftUpLeg -32.311982 -5.215487 4.004397
LeftLeg 25.841757 -0.000000 -0.000000
LeftFoot -6.507533 17.279793 -13.992840
LeftToeBase -14.077804 -0.000000 0.000000
RightUpLeg -8.630263 -11.999214 4.681554
RightLeg 0.003036 -0.000000 -0.000000
RightFoot -10.092105 -25.990552 10.074467
RightToeBase -8.317208 -0.000000 0.000000
161
root -0.548310 32.893368 -4.044307 21.021433 77.489236 6.138264
Spine -8.243631 -0.481584 -1.057820
Head 6.228213 -2.608210 -0.804122
LeftShoulder -21.683023 46.224467 4.267991
LeftArm 49.168469 -0.575581 -88.939041
LeftForeArm 16.667105 0.000000 33.368537
LeftHand 3.594580 -0.000000 9.118312
LeftHandThumb1 -26.253704 0.000000 33.147579
RightShoulder -5.954111 -5.656211 -18.767334
RightArm 9.374513 1.649092 85.189452
RightForeArm 6.427420 0.000000 12.361757
RightHand 6.707051 -0.000000 -3.207427
RightHandThumb1 -24.326973 -0.000000 -32.862282
LeftUpLeg -32.391507 -5.338681 3.977814
LeftLeg 25.732644 -0.000000 -0.000000
LeftFoot -6.412113 17.182141 -13.973596
LeftToeBase -14.415728 -0.000000 0.000000
RightUpLeg -8.891003 -12.253157 4.679556
RightLeg 0.064461 -0.000000 -0.000000
RightFoot -10.151356 -26.104882 10.210275
RightToeBase -8.269684 -0.000000 0.000000
162
root -0.532242 32.898158 -4.075576 21.965880 78.021422 6.870482
Spine -8.296495 -0.456130 -1.223670
Head 6.070927 -2.794093 -0.769519
LeftShoulder -21.728842 46.289183 4.270943
LeftArm 49.090711 -0.843330 -88.885891
LeftForeArm 16.544036 -0.000000 33.345281
LeftHand 3.629768 -0.000000 8.963230
LeftHandThumb1 -26.253704 0.000000 33.147579
RightShoulder -5.938815 -5.590541 -18.758100
RightArm 9.346961 1.848233 85.327128
RightForeArm 6.816970 -0.000000 12.443242
RightHand 6.529023 -0.000000 -2.837772
RightHandThumb1 -24.326973 -0.000000 -32.862282
LeftUpLeg -32.424886 -5.527603 3.960239
LeftLeg 25.603136 -0.000000 -0.000000
LeftFoot -6.198308 17.117948 -14.086436
LeftToeBase -14.895177 -0.000000 0.000000
RightUpLeg -9.104171 -12.471366 4.637586
RightLeg 0.126529 -0.000000 -0.000000
RightFoot -10.185281 -26.217195 10.319272
RightToeBase -8.486489 -0.000000 0.000000
163
root -0.520252 32.903732 -4.105704 22.769761 78.586887 7.419406
Spine -8.370927 -0.461601 -1.313688
Head 5.889896 -2.981068 -0.746445
LeftShoulder -21.799707 46.352352 4.256050
LeftArm 49.071151 -1.052508 -88.772912
LeftForeArm 16.481944 0.000000 33.302020
LeftHand 3.576403 0.000000 9.440303
LeftHandThumb1 -26.253704 0.000000 33.147579
RightShoulder -5.908968 -5.584033 -18.746688
RightArm 9.347610 1.998044 85.443977
RightForeArm 7.191677 -0.000000 12.572322
RightHand 6.506974 -0.000000 -2.888978
RightHandThumb1 -24.326973 -0.000000 -32.862282
LeftUpLeg -32.456529 -5.498422 3.912282
LeftLeg 25.351689 -0.000000 -0.000000
LeftFoot -5.645015 16.864253 -13.973106
LeftToeBase -15.405983 -0.000000 0.000000
RightUpLeg -9.379009 -12.761974 4.684374
RightLeg 0.211410 -0.000000 -0.000000
RightFoot -10.324396 -26.252163 10.580269
RightToeBase -8.323235 -0.000000 0.000000
164
root -0.500597 32.908028 -4.137265 23.671798 79.092960 8.104212
Spine -8.414611 -0.434159 -1.448333
Head 5.705341 -3.186495 -0.700533
LeftShoulder -21.819549 46.367414 4.303270
LeftArm 48.989049 -1.291556 -88.732297
LeftForeArm 16.336833 -0.000000 33.295832
LeftHand 3.531512 -0.000000 9.660180
LeftHandThumb1 -26.253704 0.000000 33.147579
RightShoulder -5.898361 -5.540371 -18.718323
RightArm 9.309735 2.103740 85.527974
RightForeArm 7.637872 -0.000000 12.676635
RightHand 6.541095 -0.000000 -2.930822
RightHandThumb1 -24.326973 -0.000000 -32.862282
LeftUpLeg -32.467486 -5.625490 3.896039
LeftLeg 25.162665 -0.000000 -0.000000
LeftFoot -5.087141 16.671413 -14.064813
LeftToeBase -15.397475 -0.000000 0.000000
RightUpLeg -9.601155 -13.020273 4.685526
RightLeg 0.288297 -0.000000 -0.000000
RightFoot -10.301367 -26.363391 10.597964
RightToeBase -8.503276 -0.000000 0.000000
